HIERARCHY
ROOT pelvis
{
  OFFSET 0 100 0
  CHANNELS 6 Xposition Yposition Zposition Zrotation Xrotation Yrotation
  JOINT pelvis_right_femur
  {
    OFFSET -10.78128 -3.44521 -0.5502486
    CHANNELS 3 Zrotation Xrotation Yrotation
    JOINT right_femur_tibia
    {
      OFFSET -0.8047443 -44.0398 -0.1307829
      CHANNELS 3 Zrotation Xrotation Yrotation
      JOINT right_tibia_foot
      {
        OFFSET 3.006224 -47.83518 -5
        CHANNELS 3 Zrotation Xrotation Yrotation
        End Site
        {
          OFFSET 0 -5 15
        }
      }
    }
  }
  JOINT pelvis_left_femur
  {
    OFFSET 10.78128 -3.44521 -0.5502486
    CHANNELS 3 Zrotation Xrotation Yrotation
    JOINT left_femur_tibia
    {
      OFFSET 0.8047443 -44.0398 -0.1307829
      CHANNELS 3 Zrotation Xrotation Yrotation
      JOINT left_tibia_foot
      {
        OFFSET -4.370144 -48.10324 -4.275266
        CHANNELS 3 Zrotation Xrotation Yrotation
        End Site
        {
          OFFSET 0 -5 15
        }
      }
    }
  }
  JOINT pelvis_spine1
  {
    OFFSET 0 6.468898 -3.129235
    CHANNELS 3 Zrotation Xrotation Yrotation
    JOINT spine1
    {
      OFFSET 0 23.15396 4.99043
      CHANNELS 3 Zrotation Xrotation Yrotation
      JOINT spine2
      {
        OFFSET 0 20.79997 -5.064912
        CHANNELS 3 Zrotation Xrotation Yrotation
        JOINT neck
        {
          OFFSET 0 14.38658 9.616178
          CHANNELS 3 Zrotation Xrotation Yrotation
          End Site
          {
            OFFSET 0 20 0
          }
        }
      }
      JOINT right_manubrium
      {
        OFFSET -5.722621 16.35077 3.967754
        CHANNELS 3 Zrotation Xrotation Yrotation
        JOINT right_clavicle
        {
          OFFSET -13.16364 1.694482 -4.693211
          CHANNELS 3 Zrotation Xrotation Yrotation
          JOINT right_humerus
          {
            OFFSET -28.5034 -0.3100689 -2.792744
            CHANNELS 3 Zrotation Xrotation Yrotation
            JOINT right_radius
            {
              OFFSET -25.15693 0.02248979 -1.271978
              CHANNELS 3 Zrotation Xrotation Yrotation
              End Site
              {
                OFFSET -15 0 0
              }
            }
          }
        }
      }
      JOINT left_manubrium
      {
        OFFSET 5.722621 16.35077 3.967754
        CHANNELS 3 Zrotation Xrotation Yrotation
        JOINT left_clavicle
        {
          OFFSET 13.16364 1.694482 -4.693211
          CHANNELS 3 Zrotation Xrotation Yrotation
          JOINT left_humerus
          {
            OFFSET 29.39168 -1.063119 -2.237045
            CHANNELS 3 Zrotation Xrotation Yrotation
            JOINT left_radius
            {
              OFFSET 24.59957 -0.9528479 0.9047498
              CHANNELS 3 Zrotation Xrotation Yrotation
              End Site
              {
                OFFSET 15 -0 -0
              }
            }
          }
        }
      }
    }
  }
}
MOTION
Frames: 23
Frame Time: 0.0416666666667
0 103.5113 0 1.384683 -3.561963 0.2002423 1.718082 -10.83166 7.347189 -0 41.09836 -0 -6.624222 -16.07569 -4.452679 -6.397236 13.42082 -24.13873 -0 6.251313 -0 0.4813075 -19.51672 23.92891 -1.5574 -1.965386 3.572296 0.68159 7.179969 -7.513977 1.548096 22.36449 8.567756 5.267024 -22.69337 9.381487 6.54594 -18.09765 10.28077 88.65642 35.67705 -24.2864 -0 0 16.51446 -6.838269 8.844935 2.346499 6.520054 -20.30156 -2.756993 -99.57399 42.82966 26.38549 0 0 -24.89817 -10.61641 16.95475 28.43727
0.02928381 104.9822 1.238588 0.5209729 -2.694507 0.1635899 3.367724 -13.63051 8.597005 -0 42.33022 -0 -6.907687 -15.18306 -5.00601 -5.736444 13.34615 -24.26218 -0 6.616354 -0 -1.213232 -21.19366 23.63739 -1.410431 -1.960686 3.68058 0.6331195 7.285626 -7.512557 1.554116 22.30599 8.553321 5.274078 -22.70085 9.372792 6.562853 -18.02631 10.25468 88.71865 35.83392 -24.37643 -0 0 16.28751 -6.924144 9.055666 2.344485 6.670312 -20.51005 -2.708911 -99.35843 42.50203 26.1938 0 0 -25.10487 -10.04204 17.06388 27.99852
0.1786354 106.1465 2.944064 -0.2178074 -1.44704 0.1199204 4.190591 -19.85822 6.915799 -0 37.10976 -0 -7.23057 -11.87134 -3.652872 -5.50004 12.69724 -22.49896 -0 6.258192 -0 0.272091 -21.58407 22.42324 -2.18522 -1.718804 4.056624 1.1943 7.37187 -7.137022 1.116743 22.6998 8.260981 4.68919 -23.31246 9.038604 6.789865 -17.98406 10.61038 86.3429 36.71895 -21.08921 -0 0 15.64793 -8.12775 9.10408 4.467112 5.670591 -19.48967 -2.492307 -97.79254 39.28771 25.33944 0 0 -22.28602 -6.291913 16.28177 23.30865
0.357985 107.1969 4.797557 -0.5629067 -0.1838539 0.0915496 5.066103 -23.23575 7.354594 -0 34.53503 -0 -6.889855 -11.59614 -3.590435 -5.512009 12.3548 -22.12655 -0 6.103549 -0 1.620269 -21.88213 22.56917 -2.450608 -1.669713 4.064763 1.385482 7.350762 -7.067434 1.010999 22.79751 8.207795 4.548804 -23.48033 8.974055 6.86986 -17.98492 10.73134 85.73206 36.76996 -20.28922 -0 0 15.60048 -8.285401 8.974098 4.96436 5.34865 -19.125 -2.471996 -97.5104 38.64882 25.18391 0 0 -21.49597 -5.685859 15.98282 22.37436
0.5719629 108.0569 6.996594 -0.8362483 1.148144 0.1099154 5.759094 -27.37263 7.118453 -0 30.22947 -0 -6.60741 -10.42911 -3.213266 -5.590817 12.29074 -21.27431 -0 6.145816 -0 3.189969 -22.25294 22.32574 -2.68499 -1.626408 3.975074 1.552961 7.268635 -7.041087 0.9407346 22.88177 8.197246 4.468761 -23.5916 8.940104 6.926328 -17.983 10.8258 85.34534 36.6997 -19.80395 -0 0 15.6375 -8.317865 8.793836 5.269897 5.067225 -18.79173 -2.491667 -97.4241 38.47261 25.13279 0 0 -20.9339 -5.695594 15.74101 22.12203
0.7915528 108.8013 9.488803 -1.055521 2.370495 0.1941401 6.547913 -30.62001 7.323444 -0 26.87919 -0 -6.34599 -9.608276 -3.073876 -5.658541 12.46826 -20.81439 -0 6.491861 -0 4.197589 -22.74906 22.20004 -2.873909 -1.555147 3.844125 1.682798 7.155719 -7.035436 0.8874454 22.97017 8.195249 4.425593 -23.6195 8.879184 6.914683 -17.98923 10.9016 85.15042 36.60668 -19.50328 -0 0 15.68103 -8.426808 8.640346 5.50244 4.803133 -18.52173 -2.546299 -97.40711 38.5572 25.13662 0 0 -20.56199 -6.130976 15.54379 22.36183
0.9991788 109.4251 12.40933 -1.23938 3.449727 0.3996363 7.171636 -33.66727 7.146265 -0 23.02336 -0 -6.196181 -8.193506 -2.895604 -5.670633 13.03915 -20.13536 -0 7.283493 -0 4.398066 -23.46357 21.4913 -3.042495 -1.440207 3.696811 1.789715 7.027779 -7.039077 0.8335107 23.08204 8.175952 4.390645 -23.56599 8.756158 6.814552 -18.0157 10.97582 85.08937 36.53249 -19.26016 -0 0 15.69104 -8.721971 8.531337 5.758917 4.509927 -18.29679 -2.632821 -97.37235 38.74188 25.15751 0 0 -20.27615 -6.857498 15.35816 22.91893
1.178272 109.9596 15.83559 -1.391217 4.251799 0.7666059 7.567094 -35.83646 6.73478 -0 19.39448 -0 -6.124219 -6.616795 -2.806585 -5.591393 13.92365 -19.40183 -0 8.564576 -0 3.513826 -24.19587 20.19352 -3.197245 -1.276926 3.552083 1.871778 6.900747 -7.05207 0.7740909 23.22646 8.122386 4.349313 -23.42081 8.550825 6.598793 -18.07824 11.05261 85.17176 36.51256 -19.03776 -0 0 15.63967 -9.289679 8.497941 6.076478 4.174509 -18.1338 -2.743024 -97.26799 38.9429 25.17319 0 0 -20.04356 -7.815051 15.18824 23.72253
1.312285 110.4385 19.92002 -1.504708 4.638385 1.329568 7.557535 -36.79905 5.878775 -0 15.84105 -0 -6.021154 -4.807766 -2.864791 -5.358166 15.15732 -18.34816 -0 10.65755 -0 1.16317 -24.60823 17.9003 -3.342732 -1.068685 3.424928 1.920979 6.788841 -7.080181 0.7114563 23.40734 8.024821 4.291664 -23.17401 8.25827 6.236794 -18.19905 11.12964 85.4342 36.5855 -18.83485 -0 0 15.51158 -10.21123 8.585584 6.466782 3.798067 -18.06152 -2.857101 -97.06032 39.11159 25.17011 0 0 -19.85283 -8.974804 15.05862 24.74477
1.396325 110.953 24.77354 -1.619922 4.468821 2.050051 7.251443 -35.97005 4.914506 -0 13.22143 -0 -5.720674 -3.193629 -3.200026 -4.898072 16.42778 -16.94609 -0 13.92247 -0 -2.499048 -23.88006 14.75869 -3.478006 -0.8326293 3.332595 1.924655 6.707624 -7.130422 0.6562835 23.61511 7.886521 4.211938 -22.83303 7.904646 5.709686 -18.40225 11.19682 85.91571 36.79428 -18.67654 -0 0 15.30924 -11.53184 8.856251 6.913329 3.405651 -18.11515 -2.935555 -96.7376 39.21285 25.14347 0 0 -19.71183 -10.27391 15.01147 25.93719
1.439507 111.6773 30.41706 -1.834414 3.717948 2.750907 7.034621 -33.21163 4.415042 -0 12.59395 -0 -5.200555 -2.246075 -3.816416 -4.151192 17.1137 -15.19834 -0 19.06331 -0 -6.505333 -20.94585 11.47515 -3.587324 -0.5943022 3.305317 1.866292 6.676335 -7.198813 0.6233544 23.81914 7.730596 4.113202 -22.43247 7.549749 5.033915 -18.69826 11.23901 86.60704 37.18927 -18.5783 -0 0 15.04927 -13.24265 9.386936 7.391713 3.051026 -18.32651 -2.921194 -96.30306 39.19188 25.08944 0 0 -19.648 -11.54201 15.08365 27.15921
1.452385 112.8277 36.6258 -2.226414 2.598093 3.114395 7.299888 -29.33817 4.599486 -0 14.60756 -0 -5.176591 -2.569837 -4.322578 -3.262055 16.34442 -13.46056 -0 26.68805 -0 -9.00851 -15.68133 9.371488 -3.639379 -0.3804308 3.388158 1.74195 6.715768 -7.250247 0.6176573 23.96358 7.604521 4.015549 -22.05054 7.27424 4.327389 -19.0386 11.24873 87.31986 37.78834 -18.46077 -0 0 14.76095 -15.20379 10.2084 7.909218 2.810066 -18.67669 -2.768769 -95.7721 38.92816 24.98737 0 0 -19.66278 -12.40212 15.24853 28.06359
1.411474 114.5058 42.94059 -2.62406 1.293369 2.943244 7.858564 -25.25854 4.446448 -0 17.81649 -0 -6.921077 -4.55146 -4.202283 -2.648113 13.83976 -12.33912 -0 36.70689 -0 -9.439863 -10.25121 8.964423 -3.610199 -0.1968493 3.643728 1.568588 6.854304 -7.202423 0.6146441 23.9916 7.554189 3.953038 -21.77093 7.111145 3.823603 -19.29841 11.24804 87.58236 38.54944 -18.01029 -0 0 14.476 -17.23422 11.25654 8.597292 2.734769 -19.05838 -2.491187 -95.1243 38.16078 24.7759 0 0 -19.63169 -12.28609 15.35331 28.07757
1.317048 116.6216 49.00894 -2.577463 -0.5081315 2.380225 8.026307 -20.13574 3.399571 -0 19.45181 -0 -9.269449 -7.371325 -3.902916 -2.54664 9.972195 -11.70294 -0 47.51714 -0 -9.30233 -7.248767 9.758698 -3.508897 -0.03165162 4.116308 1.358373 7.114538 -6.974398 0.5883157 23.88199 7.57608 3.940738 -21.60098 7.019371 3.677183 -19.39997 11.27556 86.94322 39.34044 -16.83781 -0 0 14.28199 -19.30959 12.40925 9.640353 2.803194 -19.32721 -2.157195 -94.34446 36.64711 24.45161 0 0 -19.34271 -10.89703 15.18761 26.85003
1.279492 119.0512 54.82229 -1.85265 -2.728682 1.669816 7.523415 -13.29104 3.113191 -0 18.60611 -0 -8.782038 -9.01535 -4.036151 -2.704963 4.455536 -10.44049 -0 56.45385 -0 -9.273412 -6.223527 11.15221 -3.33425 0.1174364 4.763374 1.085759 7.457037 -6.578229 0.5696559 23.64791 7.623248 3.9632 -21.45763 6.968173 3.743928 -19.44154 11.32844 85.55365 39.93883 -15.01627 -0 0 14.36183 -21.47585 13.5596 10.9693 2.963766 -19.4349 -1.825353 -93.57626 34.59193 24.20381 0 0 -18.807 -8.755314 14.69693 24.86278
1.367045 121.5924 60.47916 -0.7176052 -4.591402 0.9659559 6.413697 -6.491794 3.823053 -0 16.36981 -0 -5.94146 -9.307441 -4.098335 -2.803025 -2.500081 -8.646305 -0 61.22142 -0 -8.938526 -5.866522 12.59917 -3.048636 0.2511482 5.485479 0.7297818 7.785232 -6.084699 0.6062884 23.31359 7.670443 4.007908 -21.29093 6.97668 3.79289 -19.54078 11.36553 83.90854 40.19654 -12.97907 -0 0 14.82639 -23.63524 14.64023 12.31861 3.205467 -19.42108 -1.507686 -93.01683 32.48661 24.22899 0 0 -18.24808 -6.611769 14.01771 22.89216
1.527689 123.8977 66.01458 0.307257 -5.669406 0.3259799 5.131431 -1.072735 4.079046 -0 13.90474 -0 -3.749535 -9.644801 -3.523374 -2.552328 -9.575143 -7.221128 -0 60.80954 -0 -8.451155 -5.965863 13.8967 -2.616799 0.3844978 6.225692 0.3019752 8.033719 -5.530828 0.7084504 22.89455 7.713509 4.066233 -21.1207 7.055969 3.724363 -19.71517 11.36162 82.25257 40.09694 -10.95833 -0 0 15.64974 -25.69762 15.63665 13.56864 3.53374 -19.3111 -1.194085 -92.71457 30.54778 24.56324 0 0 -17.7905 -4.718258 13.2667 21.22404
1.70759 125.6568 71.45663 0.8724664 -5.936081 -0.2566183 4.287187 3.23734 3.718247 -0 11.64007 -0 -2.8648 -10.81311 -2.55629 -1.700857 -15.84912 -6.069421 -0 55.43424 -0 -7.93582 -6.273212 15.22337 -2.070465 0.5209197 6.941175 -0.1522638 8.188773 -4.943298 0.8599306 22.41863 7.735904 4.115068 -20.97332 7.183126 3.528719 -19.94252 11.32214 80.65807 39.63005 -9.01717 -0 0 16.75568 -27.59867 16.50861 14.71818 3.907322 -19.0836 -0.9039705 -92.61997 28.78242 25.14423 0 0 -17.39153 -3.107722 12.48377 19.86583
1.91 126.7433 76.87226 0.9230418 -5.595917 -0.8154967 4.078026 7.058907 3.406461 -0 9.751979 -0 -2.330789 -12.83033 -1.777911 -0.2692463 -21.02974 -4.766717 -0 46.4748 -0 -7.369967 -6.475782 16.67826 -1.533473 0.6347077 7.588787 -0.574152 8.277932 -4.359148 1.033926 21.94448 7.715786 4.127152 -20.83814 7.316563 3.253169 -20.21169 11.27278 79.17024 38.79943 -7.18056 -0 0 18.06526 -29.26702 17.17781 15.77165 4.235913 -18.69986 -0.6834272 -92.66552 27.18508 25.87193 0 0 -16.89676 -1.847764 11.67991 18.79843
2.180443 127.2331 82.36944 0.6342171 -4.850026 -1.371233 4.175153 10.56987 3.328541 -0 8.57217 -0 -1.581999 -15.21484 -1.272015 1.295112 -25.1033 -3.439291 -0 36.15258 -0 -6.85644 -6.519864 17.98079 -1.151185 0.6881447 8.15632 -0.9275827 8.348624 -3.804412 1.207874 21.53504 7.643393 4.091515 -20.66975 7.421847 2.979642 -20.52858 11.24218 77.80471 37.65012 -5.444363 -0 0 19.52735 -30.64666 17.57931 16.70839 4.440307 -18.13925 -0.5692302 -92.80853 25.77424 26.66007 0 0 -16.13843 -1.004542 10.85367 17.99493
2.569951 127.3257 88.10088 0.2879315 -3.92039 -1.924264 4.078321 13.64765 3.3238 -0 8.58391 -0 -0.5985955 -17.1636 -0.807619 2.380179 -28.00319 -2.546276 -0 26.81077 -0 -6.53564 -6.509789 18.88001 -1.018329 0.6571623 8.643598 -1.196536 8.447804 -3.305746 1.36643 21.23712 7.523869 4.014542 -20.42014 7.48025 2.795166 -20.8833 11.25193 76.60366 36.27505 -3.861586 -0 0 21.05688 -31.67501 17.69048 17.46855 4.487614 -17.43577 -0.5808468 -93.01813 24.59565 27.41815 0 0 -15.05345 -0.6009384 10.01567 17.42901
3.107651 127.2463 94.22933 0.1472425 -3.17454 -2.467514 3.473086 16.20431 3.323117 -0 10.1929 -0 0.4093797 -17.72995 -0.324798 2.547109 -29.54083 -2.439225 -0 20.18686 -0 -6.369641 -6.598228 19.40521 -1.150749 0.5468001 9.025907 -1.367985 8.615421 -2.914572 1.495814 21.07631 7.378401 3.912192 -20.06784 7.489032 2.771785 -21.21803 11.31359 75.6834 34.84166 -2.609974 -0 0 22.45124 -32.29034 17.55744 17.97186 4.390038 -16.70469 -0.7249541 -93.22897 23.70893 27.99982 0 0 -13.76166 -0.5972514 9.211756 17.08282
3.800595 127.2153 100.8604 0.366613 -2.943057 -2.96094 2.340127 18.10722 3.449073 -0 13.7326 -0 1.165709 -16.04459 0.003069473 1.731829 -29.59703 -3.089011 -0 17.01686 -0 -6.041564 -6.846415 19.61042 -1.484351 0.3905953 9.254673 -1.432422 8.875412 -2.694864 1.583726 21.04731 7.239997 3.801581 -19.63165 7.461617 2.94122 -21.43895 11.42491 75.17825 33.56094 -1.915588 -0 0 23.4356 -32.49109 17.29973 18.17822 4.192769 -16.10922 -0.9935316 -93.32912 23.13771 28.22205 0 0 -12.53723 -0.876898 8.507085 16.92632
